# xmcd
#
# Track frame offsets: 
#        150
#        17027
#        30105
#        44722
#        61642
#        78055
#        91655
#        109640
#        120512
#        133387
#        150140
#
# Disc length: 2155 seconds
#
# Revision: 4
# Processed by: cddbd v1.5.2PL0 Copyright (c) Steve Scherf et al.
# Submitted via: ExactAudioCopyFreeDBPlugin 1.0
#
DISCID=7008690b
DTITLE=Christine Albert - TEXAFRANCE
DYEAR=1900
DGENRE=Country
TTITLE0=Let It Be Me - Je T'appartiens
TTITLE1=No One Two Steps Like You - Personne Ne Two Step Comme Toi
TTITLE2=La Vie en Rose
TTITLE3=Hymne A L'amor - Hymn to Love
TTITLE4=Amor Tambien
TTITLE5=La Lumiere de L'amour - The Light of Love
TTITLE6=The Man I Love - Mon Seul Amour
TTITLE7=What Have You Done With My Love
TTITLE8=Je Reve de Toi - I Dream of You
TTITLE9=Accompany Me - Tu Vas M'accompagner
TTITLE10=Non, Je Ne Regrette Rien - No Regrets
EXTD=
EXTT0=
EXTT1=
EXTT2=
EXTT3=
EXTT4=
EXTT5=
EXTT6=
EXTT7=
EXTT8=
EXTT9=
EXTT10=
PLAYORDER=
